<?xml version="1.0" encoding="iso-8859-1"?>
<!-- Generator: Adobe Illustrator 19.0.0, SVG Export Plug-In . SVG Version: 6.00 Build 0)  -->
<svg version="1.1" id="Capa_1" xmlns="http://www.w3.org/2000/svg" xmlns:xlink="http://www.w3.org/1999/xlink" x="0px" y="0px"
	 viewBox="0 0 489.6 489.6" style="enable-background:new 0 0 489.6 489.6;" xml:space="preserve">
<g>
	<g>
		<g>
			<path d="M443,264.589H42c3.1,17.1-18.7,38.1-18.7,38.1h438.3C461.6,302.689,439.5,281.689,443,264.589z"/>
			<path d="M439.1,374.989c-33.4-10.5-43.5-36.5-43.9-37.7c-1.6-4.3-6.2-6.2-10.1-4.7c-4.3,1.6-6.2,6.2-4.7,10.1
				c0.4,1.6,13.2,34.6,54,47.4c0.8,0.4,7.2,1.6,10.1-5.1C445.7,380.789,443.4,376.489,439.1,374.989z"/>
			<path d="M99.5,332.589c-4.3-1.6-8.5,0.8-10.1,4.7c0,0.4-10.1,27.2-43.9,37.7c-4.3,1.2-6.6,5.8-5.1,10.1c2.4,6.7,9.3,5.4,10.1,5.1
				c41.2-12.8,53.6-46.2,54-47.4C106.1,338.489,103.7,334.189,99.5,332.589z"/>
			<path d="M333,374.989c-33.4-10.5-43.5-36.5-43.9-37.7c-1.6-4.3-6.2-6.2-10.1-4.7c-4.3,1.6-6.2,6.2-4.7,10.1
				c0.4,1.6,13.2,34.6,54,47.4c0.8,0.4,7,1.6,10.1-5.1C339.2,380.789,336.9,376.489,333,374.989z"/>
			<path d="M205.9,332.589c-4.3-1.6-8.5,0.8-10.1,4.7c0,0.4-10.1,27.2-43.9,37.7c-4.3,1.2-6.6,5.8-5.1,10.1
				c2.5,6.8,9.3,5.4,10.1,5.1c41.2-12.8,53.6-46.2,54-47.4C212.2,338.489,209.8,334.189,205.9,332.589z"/>
			<path d="M477.2,99.089H12.4c-7,0-12.4,5.4-12.4,12.4v104.5h489.6l0,0v-104.5C489.6,104.489,484.2,99.089,477.2,99.089z
				 M448,189.989H41.6c-4.3,0-7.8-3.5-7.8-7.8s3.5-7.8,7.8-7.8h406.1c4.3,0,7.8,3.5,7.8,7.8S452.3,189.989,448,189.989z
				 M448,149.189H41.6c-4.3,0-7.8-3.5-7.8-7.8s3.5-7.8,7.8-7.8h406.1c4.3,0,7.8,3.5,7.8,7.8
				C455.4,145.689,452.3,149.189,448,149.189z"/>
			<path d="M0,231.989v36.5c0,7,5.4,12.4,12.4,12.4c0,0,9.6,0,9.7-12.8l-4.2-23.3H42h425.1l-4.7,23.3c1,12.8,14.8,12.8,14.8,12.8
				c7,0,12.4-5.4,12.4-12.4v-36.5L0,231.989L0,231.989z"/>
		</g>
	</g>
</g>
<g>
</g>
<g>
</g>
<g>
</g>
<g>
</g>
<g>
</g>
<g>
</g>
<g>
</g>
<g>
</g>
<g>
</g>
<g>
</g>
<g>
</g>
<g>
</g>
<g>
</g>
<g>
</g>
<g>
</g>
</svg>
