<svg id="Layer_1" data-name="Layer 1" xmlns="http://www.w3.org/2000/svg" viewBox="0 0 123.03 30.28"><defs><style>.cls-1{fill:#231f20;}.cls-2{fill:#be1e2d;}</style></defs><title>logo vigroup</title><path class="cls-1" d="M404.21,302.11v-3h7.65v7a9.63,9.63,0,0,1-3.23,1.9,11.77,11.77,0,0,1-4.29.82,9.62,9.62,0,0,1-4.81-1.16,7.36,7.36,0,0,1-3.08-3.31,10.69,10.69,0,0,1-1-4.68,10.12,10.12,0,0,1,1.15-4.88,7.75,7.75,0,0,1,3.37-3.27,9.09,9.09,0,0,1,4.21-.88,8.4,8.4,0,0,1,5.11,1.37,6.2,6.2,0,0,1,2.37,3.79l-3.53.66a3.72,3.72,0,0,0-1.4-2,4.22,4.22,0,0,0-2.56-.75,4.81,4.81,0,0,0-3.7,1.47,6.21,6.21,0,0,0-1.37,4.38,6.88,6.88,0,0,0,1.39,4.69,4.64,4.64,0,0,0,3.65,1.56,6.11,6.11,0,0,0,2.24-.44,7.66,7.66,0,0,0,1.92-1.06v-2.23Z" transform="translate(-360.14 -282.94)"/><path class="cls-1" d="M415.15,308.57V291h7.47a12.79,12.79,0,0,1,4.09.47,4,4,0,0,1,2,1.68,5.07,5.07,0,0,1,.77,2.77,4.69,4.69,0,0,1-1.16,3.27,5.59,5.59,0,0,1-3.48,1.62,8.29,8.29,0,0,1,1.9,1.47,20.05,20.05,0,0,1,2,2.85l2.15,3.43H426.7l-2.57-3.82a24.81,24.81,0,0,0-1.87-2.58,2.73,2.73,0,0,0-1.07-.73,5.85,5.85,0,0,0-1.79-.2h-.72v7.34Zm3.55-10.14h2.63a13.56,13.56,0,0,0,3.19-.22,1.91,1.91,0,0,0,1-.74,2.29,2.29,0,0,0,.36-1.32,2.11,2.11,0,0,0-.47-1.43,2.17,2.17,0,0,0-1.34-.69q-.43-.06-2.59-.06H418.7Z" transform="translate(-360.14 -282.94)"/><path class="cls-1" d="M432.15,299.89a11.18,11.18,0,0,1,.8-4.51,8.27,8.27,0,0,1,1.64-2.41,6.84,6.84,0,0,1,2.27-1.58,9.65,9.65,0,0,1,3.79-.7,8.25,8.25,0,0,1,6.22,2.41,10.77,10.77,0,0,1,0,13.36,8.19,8.19,0,0,1-6.19,2.4,8.27,8.27,0,0,1-6.24-2.39A9.08,9.08,0,0,1,432.15,299.89Zm3.66-.12a6.59,6.59,0,0,0,1.38,4.53,4.74,4.74,0,0,0,7,0,6.72,6.72,0,0,0,1.36-4.59,6.61,6.61,0,0,0-1.32-4.51,4.91,4.91,0,0,0-7.06,0A6.64,6.64,0,0,0,435.81,299.77Z" transform="translate(-360.14 -282.94)"/><path class="cls-1" d="M451.94,291h3.55v9.52a19.72,19.72,0,0,0,.13,2.94,2.85,2.85,0,0,0,1.09,1.73,3.78,3.78,0,0,0,2.34.65,3.58,3.58,0,0,0,2.28-.62,2.44,2.44,0,0,0,.92-1.52,19.79,19.79,0,0,0,.16-3V291H466v9.23a23.72,23.72,0,0,1-.29,4.47,5,5,0,0,1-1.06,2.21,5.36,5.36,0,0,1-2.07,1.43,9,9,0,0,1-3.38.53,9.74,9.74,0,0,1-3.82-.58,5.46,5.46,0,0,1-2.06-1.51,4.84,4.84,0,0,1-1-1.95,21.33,21.33,0,0,1-.35-4.46Z" transform="translate(-360.14 -282.94)"/><path class="cls-1" d="M469.7,308.57V291h5.7a20.67,20.67,0,0,1,4.22.26,4.61,4.61,0,0,1,2.53,1.72,5.46,5.46,0,0,1,1,3.42,5.74,5.74,0,0,1-.59,2.72,4.82,4.82,0,0,1-1.49,1.73,5.14,5.14,0,0,1-1.84.83,20.25,20.25,0,0,1-3.68.25h-2.31v6.63Zm3.55-14.6v5h1.94a9.18,9.18,0,0,0,2.81-.28,2.33,2.33,0,0,0,1.11-.86,2.36,2.36,0,0,0,.4-1.37,2.27,2.27,0,0,0-.56-1.58,2.46,2.46,0,0,0-1.43-.78A17.07,17.07,0,0,0,475,294Z" transform="translate(-360.14 -282.94)"/><polygon class="cls-1" points="23.62 10.68 17.76 23.06 14.34 30.28 11.39 24.05 14.81 16.82 17.71 10.68 23.62 10.68"/><polygon class="cls-1" points="28.68 0 25 7.77 19.09 7.77 22.77 0 28.68 0"/><polygon class="cls-2" points="17.71 10.68 19.5 10.68 12.32 25.98 11.39 24.05 14.81 16.82 17.71 10.68"/><polygon class="cls-2" points="24.52 0 20.87 7.77 19.09 7.77 22.77 0 24.52 0"/><polygon class="cls-2" points="14.3 15.69 10.88 22.91 0 0 6.84 0 14.3 15.69"/><rect class="cls-2" x="29.57" y="7.69" width="3.46" height="18.29"/></svg>